<svg xmlns="http://www.w3.org/2000/svg" viewBox="0 0 231.1 74.6"><defs><style>.cls-1{fill:#5590ad;}.cls-2{fill:#fff;}</style></defs><title>Asset 29</title><g id="Layer_2" data-name="Layer 2"><g id="Layer_1-2" data-name="Layer 1"><path class="cls-1" d="M110.6,50.4H99.4V24.3h11.2c9,0,13.7,5.6,13.7,13S119.6,50.4,110.6,50.4Zm0-19.6h-3.7v13h3.7c4,0,6.1-2.4,6.1-6.5S114.6,30.8,110.6,30.8Z"/><path class="cls-1" d="M140.7,50.4,136.4,42h-3.7v8.4h-7.4V24.3H138c6.9,0,10.2,3.6,10.2,8.6a8.6,8.6,0,0,1-4.6,7.6l5.4,9.9Zm-2.9-19.6h-5.1v5.4h5.1a2.7,2.7,0,0,0,2.9-2.7A2.6,2.6,0,0,0,137.8,30.8Z"/><path class="cls-1" d="M149.7,50.4V24.3h7.4V50.4Z"/><path class="cls-1" d="M175.4,50.4h-8.1l-9.6-26.1h8.1l5.6,17.4,5.3-17.4H185Z"/><path class="cls-1" d="M185.6,50.4V24.3h20.6v6.5H193V34h11.5v5.8H193v4h13.6v6.6Z"/><path class="cls-1" d="M222.9,50.4,218.6,42h-3.7v8.4h-7.4V24.3h12.6c7,0,10.3,3.6,10.3,8.6a8.5,8.5,0,0,1-4.7,7.6l5.4,9.9ZM220,30.8h-5.1v5.4H220a2.7,2.7,0,0,0,2.9-2.7A2.7,2.7,0,0,0,220,30.8Z"/><circle class="cls-1" cx="37.3" cy="37.3" r="37.3"/><path class="cls-2" d="M44.8,28.3H24.7a.7.7,0,0,0-.7.8v.7H18.3a.9.9,0,0,0-.8.6l-.9,5.1-2.1.8a.8.8,0,0,0-.5.7v6.1a.7.7,0,0,0,.7.7h2.4a3.1,3.1,0,0,0,3.1,2.5,3.1,3.1,0,0,0,3.2-2.5H35.6a3.1,3.1,0,0,0,3.2,2.5,3.1,3.1,0,0,0,3.1-2.5h2.9a.7.7,0,0,0,.7-.7v-14A.7.7,0,0,0,44.8,28.3ZM20.2,44.8a1.8,1.8,0,0,1-1.7-1.7,1.8,1.8,0,0,1,1.7-1.8A1.8,1.8,0,0,1,22,43.1,1.8,1.8,0,0,1,20.2,44.8Zm18.6,0A1.8,1.8,0,0,1,37,43.1a1.8,1.8,0,0,1,1.8-1.8,1.8,1.8,0,0,1,1.7,1.8A1.8,1.8,0,0,1,38.8,44.8ZM44,42.3H41.9a3.2,3.2,0,0,0-6.3,0H23.4a3.2,3.2,0,0,0-6.3,0H15.5V37.5l2-.7a1,1,0,0,0,.5-.6l.9-4.9H24v8.2a.7.7,0,0,0,.7.7.7.7,0,0,0,.8-.7V29.8H44Z"/><path class="cls-2" d="M44,22.8H38.8a.8.8,0,0,1-.9-.8.9.9,0,0,1,.9-.8H44a.9.9,0,0,1,.8.8A.8.8,0,0,1,44,22.8Z"/><path class="cls-2" d="M42,52.9a.8.8,0,0,1,.2.5,1.1,1.1,0,0,1-.2.6,1,1,0,0,1-1.2,0,1.1,1.1,0,0,1-.2-.6.8.8,0,0,1,.2-.5A.9.9,0,0,1,42,52.9Z"/><path class="cls-2" d="M30.6,50h0v3.9a3.3,3.3,0,0,0,3.1,3.4H49a3.3,3.3,0,0,0,3.2-3.4V50h0V26.2h0V20.7A3.3,3.3,0,0,0,49,17.3H33.7a3.3,3.3,0,0,0-3.1,3.4v5.4h0V27h20V49.2H32.2V47H30.6v3Zm20-29.3v4.7H32.2V20.7a1.7,1.7,0,0,1,1.5-1.8H49A1.7,1.7,0,0,1,50.6,20.7ZM32.2,53.9V50.8H50.6v3.1A1.7,1.7,0,0,1,49,55.7H33.7A1.7,1.7,0,0,1,32.2,53.9Z"/></g></g></svg>